<svg width="91" height="43" viewBox="0 0 91 43" fill="none" xmlns="http://www.w3.org/2000/svg">
<path fill-rule="evenodd" clip-rule="evenodd" d="M56.514 0C53.3473 0 50.5907 0.455637 50.3629 1.0024L33.8916 41.463C33.6638 42.0098 36.0559 42.4654 39.2225 42.4654C42.3892 42.4654 45.1458 42.0098 45.3737 41.463L61.8449 1.0024C62.0727 0.455637 59.6806 0 56.514 0Z" fill="#191B1B"/>
<path fill-rule="evenodd" clip-rule="evenodd" d="M39.5873 0C36.4206 0 33.664 0.455637 33.4362 1.0024L16.9649 41.463C16.7371 42.0098 19.1292 42.4654 22.2958 42.4654C25.4625 42.4654 28.2191 42.0098 28.4242 41.463L44.9182 1.0024C45.146 0.455637 42.7539 0 39.5873 0Z" fill="#191B1B"/>
<path fill-rule="evenodd" clip-rule="evenodd" d="M22.6374 0C19.4707 0 16.7141 0.455637 16.4863 1.0024L0.015013 41.463C-0.212805 42.0098 2.17929 42.4654 5.34596 42.4654C8.51264 42.4654 11.2692 42.0098 11.4971 41.463L27.9683 1.0024C28.1961 0.455637 25.804 0 22.6374 0Z" fill="#191B1B"/>
<path fill-rule="evenodd" clip-rule="evenodd" d="M89.8893 0H68.725C68.725 0 68.0187 0.0455637 67.677 0.205037C67.1986 0.432855 66.8797 0.97962 66.8569 1.0024L50.3856 41.463C50.1578 42.0098 52.5499 42.4654 55.7166 42.4654C58.8832 42.4654 61.6171 42.0098 61.8449 41.463L74.5571 10.2518H85.7202C86.3354 10.2518 87.7706 7.95087 88.9325 5.12592C90.0716 2.30097 90.5044 0.0227819 89.8893 0Z" fill="#FFCD00"/>
</svg>
